<svg width="40" height="40" viewBox="0 0 40 40" fill="none" xmlns="http://www.w3.org/2000/svg">
<g id="Burger-Nav">
<path id="Union" d="M6.66602 19.25C6.2518 19.25 5.91602 19.5858 5.91602 20C5.91602 20.4142 6.2518 20.75 6.66602 20.75V19.25ZM33.3327 20.75C33.7469 20.75 34.0827 20.4142 34.0827 20C34.0827 19.5858 33.7469 19.25 33.3327 19.25V20.75ZM6.66602 9.25C6.2518 9.25 5.91602 9.58579 5.91602 10C5.91602 10.4142 6.2518 10.75 6.66602 10.75V9.25ZM33.3327 10.75C33.7469 10.75 34.0827 10.4142 34.0827 10C34.0827 9.58579 33.7469 9.25 33.3327 9.25V10.75ZM6.66602 29.25C6.2518 29.25 5.91602 29.5858 5.91602 30C5.91602 30.4142 6.2518 30.75 6.66602 30.75V29.25ZM33.3327 30.75C33.7469 30.75 34.0827 30.4142 34.0827 30C34.0827 29.5858 33.7469 29.25 33.3327 29.25V30.75ZM6.66602 20.75H33.3327V19.25H6.66602V20.75ZM6.66602 10.75H33.3327V9.25H6.66602V10.75ZM6.66602 30.75H33.3327V29.25H6.66602V30.75Z" fill="white"/>
</g>
</svg>
