<svg width="40" height="40" viewBox="0 0 40 40" fill="none" xmlns="http://www.w3.org/2000/svg">
<g id="Cart">
<path id="Union" d="M5 4.25C4.58579 4.25 4.25 4.58579 4.25 5C4.25 5.41421 4.58579 5.75 5 5.75L5 4.25ZM9.16667 5L9.89427 4.8181C9.8108 4.48422 9.51082 4.25 9.16667 4.25V5ZM31.6667 27.4167C32.0809 27.4167 32.4167 27.0809 32.4167 26.6667C32.4167 26.2525 32.0809 25.9167 31.6667 25.9167V27.4167ZM35 8.33333L35.7276 8.51523C35.7836 8.29118 35.7333 8.05381 35.5912 7.87177C35.449 7.68974 35.231 7.58333 35 7.58333V8.33333ZM31.6667 21.6667V22.4167C32.0108 22.4167 32.3108 22.1824 32.3943 21.8486L31.6667 21.6667ZM5 5.75H9.16667V4.25H5L5 5.75ZM8.43906 5.1819L9.27239 8.51523L10.7276 8.15143L9.89427 4.8181L8.43906 5.1819ZM9.27239 8.51523L12.6057 21.8486L14.0609 21.4848L10.7276 8.15143L9.27239 8.51523ZM13.3333 20.9167H12.5V22.4167H13.3333V20.9167ZM12.5 27.4167H31.6667V25.9167H12.5V27.4167ZM9.25 24.1667C9.25 25.9616 10.7051 27.4167 12.5 27.4167V25.9167C11.5335 25.9167 10.75 25.1332 10.75 24.1667H9.25ZM12.5 20.9167C10.7051 20.9167 9.25 22.3717 9.25 24.1667H10.75C10.75 23.2002 11.5335 22.4167 12.5 22.4167V20.9167ZM10 9.08333H35V7.58333H10V9.08333ZM34.2724 8.15143L30.9391 21.4848L32.3943 21.8486L35.7276 8.51523L34.2724 8.15143ZM31.6667 20.9167H13.3333V22.4167H31.6667V20.9167ZM30.9167 33.3333C30.9167 33.8396 30.5063 34.25 30 34.25V35.75C31.3347 35.75 32.4167 34.668 32.4167 33.3333H30.9167ZM30 34.25C29.4937 34.25 29.0833 33.8396 29.0833 33.3333H27.5833C27.5833 34.668 28.6653 35.75 30 35.75V34.25ZM29.0833 33.3333C29.0833 32.8271 29.4937 32.4167 30 32.4167V30.9167C28.6653 30.9167 27.5833 31.9986 27.5833 33.3333H29.0833ZM30 32.4167C30.5063 32.4167 30.9167 32.8271 30.9167 33.3333H32.4167C32.4167 31.9986 31.3347 30.9167 30 30.9167V32.4167ZM14.25 33.3333C14.25 33.8396 13.8396 34.25 13.3333 34.25V35.75C14.668 35.75 15.75 34.668 15.75 33.3333H14.25ZM13.3333 34.25C12.8271 34.25 12.4167 33.8396 12.4167 33.3333H10.9167C10.9167 34.668 11.9986 35.75 13.3333 35.75V34.25ZM12.4167 33.3333C12.4167 32.8271 12.8271 32.4167 13.3333 32.4167V30.9167C11.9986 30.9167 10.9167 31.9986 10.9167 33.3333H12.4167ZM13.3333 32.4167C13.8396 32.4167 14.25 32.8271 14.25 33.3333H15.75C15.75 31.9986 14.668 30.9167 13.3333 30.9167V32.4167Z" fill="white"/>
</g>
</svg>
