<svg width="40" height="40" viewBox="0 0 40 40" fill="none" xmlns="http://www.w3.org/2000/svg">
<g id="Map">
<path id="Union" fill-rule="evenodd" clip-rule="evenodd" d="M9.08398 14.9997C9.08398 11.4136 10.3209 8.70391 12.2634 6.88735C14.2138 5.06332 16.937 4.08301 20.0007 4.08301C23.0625 4.08301 25.786 5.07176 27.7373 6.90101C29.681 8.72308 30.9173 11.4335 30.9173 14.9997C30.9173 20.1934 28.1166 25.4491 25.225 29.472C23.7889 31.4699 22.3515 33.135 21.2731 34.3003C20.7495 34.8661 20.3115 35.3131 20.0006 35.6221C19.6898 35.3131 19.2518 34.8661 18.7282 34.3003C17.6498 33.135 16.2124 31.4699 14.7763 29.472C11.8847 25.4491 9.08398 20.1934 9.08398 14.9997ZM19.4909 37.2165C19.4911 37.2167 19.4913 37.2168 20.0007 36.6663L19.4913 37.2168C19.7788 37.4828 20.2225 37.4828 20.51 37.2168L20.0007 36.6663C20.51 37.2168 20.5102 37.2167 20.5104 37.2165L20.5111 37.2158L20.5132 37.2139L20.5207 37.2069L20.5479 37.1814C20.5715 37.1593 20.6058 37.1268 20.65 37.0845C20.7386 36.9998 20.8672 36.8753 21.0301 36.7137C21.3559 36.3906 21.8191 35.9188 22.374 35.3191C23.4831 34.1206 24.9624 32.4074 26.443 30.3475C29.3847 26.255 32.4173 20.6773 32.4173 14.9997C32.4173 11.0659 31.042 7.94293 28.7632 5.80667C26.492 3.67759 23.3821 2.58301 20.0007 2.58301C16.621 2.58301 13.5108 3.66699 11.2388 5.79178C8.95876 7.92403 7.58398 11.0477 7.58398 14.9997C7.58398 20.6773 10.6166 26.255 13.5583 30.3475C15.0389 32.4074 16.5182 34.1206 17.6273 35.3191C18.1822 35.9188 18.6454 36.3906 18.9712 36.7137C19.1341 36.8753 19.2627 36.9998 19.3513 37.0845C19.3955 37.1268 19.4298 37.1593 19.4534 37.1814L19.4806 37.2069L19.4881 37.2139L19.4902 37.2158L19.4909 37.2165ZM15.7507 14.9997C15.7507 12.6525 17.6534 10.7497 20.0007 10.7497C22.3479 10.7497 24.2507 12.6525 24.2507 14.9997C24.2507 17.3469 22.3479 19.2497 20.0007 19.2497C17.6534 19.2497 15.7507 17.3469 15.7507 14.9997ZM20.0007 9.24967C16.825 9.24967 14.2507 11.824 14.2507 14.9997C14.2507 18.1753 16.825 20.7497 20.0007 20.7497C23.1763 20.7497 25.7507 18.1753 25.7507 14.9997C25.7507 11.824 23.1763 9.24967 20.0007 9.24967Z" fill="white"/>
</g>
</svg>
